<?xml version="1.0" encoding="UTF-8" standalone="no"?>
<!-- Created with Inkscape (http://www.inkscape.org/) -->

<svg
   xmlns:osb="http://www.openswatchbook.org/uri/2009/osb"
   xmlns:dc="http://purl.org/dc/elements/1.1/"
   xmlns:cc="http://creativecommons.org/ns#"
   xmlns:rdf="http://www.w3.org/1999/02/22-rdf-syntax-ns#"
   xmlns:svg="http://www.w3.org/2000/svg"
   xmlns="http://www.w3.org/2000/svg"
   xmlns:sodipodi="http://sodipodi.sourceforge.net/DTD/sodipodi-0.dtd"
   xmlns:inkscape="http://www.inkscape.org/namespaces/inkscape"
   width="210mm"
   height="297mm"
   id="svg2"
   version="1.1"
   inkscape:version="0.48.4 r9939"
   sodipodi:docname="Discriminator.eps">
  <defs
     id="defs4">
    <marker
       inkscape:stockid="Arrow2Lend"
       orient="auto"
       refY="0.0"
       refX="0.0"
       id="Arrow2Lend"
       style="overflow:visible;">
      <path
         id="path3853"
         style="fill-rule:evenodd;stroke-width:0.62500000;stroke-linejoin:round;"
         d="M 8.7185878,4.0337352 L -2.2072895,0.016013256 L 8.7185884,-4.0017078 C 6.9730900,-1.6296469 6.9831476,1.6157441 8.7185878,4.0337352 z "
         transform="scale(1.1) rotate(180) translate(1,0)" />
    </marker>
    <marker
       inkscape:stockid="Arrow1Lend"
       orient="auto"
       refY="0.0"
       refX="0.0"
       id="Arrow1Lend"
       style="overflow:visible;">
      <path
         id="path3835"
         d="M 0.0,0.0 L 5.0,-5.0 L -12.5,0.0 L 5.0,5.0 L 0.0,0.0 z "
         style="fill-rule:evenodd;stroke:#000000;stroke-width:1.0pt;"
         transform="scale(0.8) rotate(180) translate(12.5,0)" />
    </marker>
    <marker
       inkscape:stockid="Arrow2Lstart"
       orient="auto"
       refY="0.0"
       refX="0.0"
       id="Arrow2Lstart"
       style="overflow:visible">
      <path
         id="path3850"
         style="fill-rule:evenodd;stroke-width:0.62500000;stroke-linejoin:round"
         d="M 8.7185878,4.0337352 L -2.2072895,0.016013256 L 8.7185884,-4.0017078 C 6.9730900,-1.6296469 6.9831476,1.6157441 8.7185878,4.0337352 z "
         transform="scale(1.1) translate(1,0)" />
    </marker>
    <linearGradient
       id="linearGradient4390"
       osb:paint="solid">
      <stop
         style="stop-color:#005fc4;stop-opacity:1;"
         offset="0"
         id="stop4392" />
    </linearGradient>
    <inkscape:path-effect
       effect="spiro"
       id="path-effect4312"
       is_visible="true" />
    <inkscape:path-effect
       effect="spiro"
       id="path-effect4308"
       is_visible="true" />
    <inkscape:path-effect
       effect="spiro"
       id="path-effect4284"
       is_visible="true" />
    <inkscape:path-effect
       effect="spiro"
       id="path-effect4280"
       is_visible="true" />
    <inkscape:path-effect
       effect="spiro"
       id="path-effect4276"
       is_visible="true" />
    <marker
       inkscape:stockid="Arrow1Lstart"
       orient="auto"
       refY="0.0"
       refX="0.0"
       id="Arrow1Lstart"
       style="overflow:visible">
      <path
         id="path3832"
         d="M 0.0,0.0 L 5.0,-5.0 L -12.5,0.0 L 5.0,5.0 L 0.0,0.0 z "
         style="fill-rule:evenodd;stroke:#000000;stroke-width:1.0pt"
         transform="scale(0.8) translate(12.5,0)" />
    </marker>
  </defs>
  <sodipodi:namedview
     id="base"
     pagecolor="#ffffff"
     bordercolor="#666666"
     borderopacity="1.0"
     inkscape:pageopacity="0.0"
     inkscape:pageshadow="2"
     inkscape:zoom="1.6328572"
     inkscape:cx="370.59752"
     inkscape:cy="912.20552"
     inkscape:document-units="px"
     inkscape:current-layer="layer1"
     showgrid="true"
     inkscape:snap-grids="true"
     showguides="false"
     inkscape:window-width="1729"
     inkscape:window-height="999"
     inkscape:window-x="1932"
     inkscape:window-y="169"
     inkscape:window-maximized="0">
    <inkscape:grid
       type="xygrid"
       id="grid2985" />
  </sodipodi:namedview>
  <metadata
     id="metadata7">
    <rdf:RDF>
      <cc:Work
         rdf:about="">
        <dc:format>image/svg+xml</dc:format>
        <dc:type
           rdf:resource="http://purl.org/dc/dcmitype/StillImage" />
        <dc:title></dc:title>
      </cc:Work>
    </rdf:RDF>
  </metadata>
  <g
     inkscape:label="レイヤー 1"
     inkscape:groupmode="layer"
     id="layer1">
    <path
       sodipodi:nodetypes="cc"
       style="fill:none;stroke:#000000;stroke-width:1;stroke-linecap:butt;stroke-linejoin:miter;stroke-miterlimit:4;stroke-opacity:1;stroke-dasharray:none;stroke-dashoffset:0"
       d="m 245,187.36218 70,0"
       id="path2993"
       inkscape:connector-curvature="0" />
    <path
       style="fill:none;stroke:#000000;stroke-width:1px;stroke-linecap:butt;stroke-linejoin:miter;stroke-opacity:1"
       d="m 100,37.362183 c 166.66667,0 333.33333,0 500,0"
       id="path3804"
       inkscape:connector-curvature="0"
       sodipodi:nodetypes="cc" />
    <path
       style="fill:none;stroke:#000000;stroke-width:1;stroke-linecap:butt;stroke-linejoin:miter;stroke-miterlimit:4;stroke-opacity:1;stroke-dasharray:8,8;stroke-dashoffset:0"
       d="m 100,67.362183 500,0"
       id="path4272"
       inkscape:connector-curvature="0"
       sodipodi:nodetypes="cc" />
    <path
       style="fill:none;stroke:#000000;stroke-width:1;stroke-linecap:butt;stroke-linejoin:miter;stroke-opacity:1;stroke-miterlimit:4;stroke-dasharray:2,1;stroke-dashoffset:0"
       d="m 245,67.362183 0,119.999997"
       id="path4384"
       inkscape:connector-curvature="0" />
    <path
       inkscape:connector-curvature="0"
       id="path4386"
       d="m 430,67.362183 0,119.999997"
       style="fill:none;stroke:#000000;stroke-width:1;stroke-linecap:butt;stroke-linejoin:miter;stroke-miterlimit:4;stroke-opacity:1;stroke-dasharray:2,1;stroke-dashoffset:0"
       sodipodi:nodetypes="cc" />
    <text
       xml:space="preserve"
       style="font-size:22px;font-style:normal;font-variant:normal;font-weight:normal;font-stretch:normal;text-align:start;line-height:125%;letter-spacing:0px;word-spacing:0px;writing-mode:lr;text-anchor:start;fill:#000000;fill-opacity:1;stroke:none;font-family:Arial;-inkscape-font-specification:Arial"
       x="100"
       y="32.362183"
       id="text4396"
       sodipodi:linespacing="125%"><tspan
         sodipodi:role="line"
         id="tspan4398"
         x="100"
         y="32.362183">INPUT</tspan></text>
    <text
       xml:space="preserve"
       style="font-size:18px;font-style:normal;font-variant:normal;font-weight:normal;font-stretch:normal;text-align:start;line-height:125%;letter-spacing:0px;word-spacing:0px;writing-mode:lr-tb;text-anchor:start;fill:#000000;fill-opacity:1;stroke:none;font-family:Arial;-inkscape-font-specification:Arial"
       x="20"
       y="67.362183"
       id="text4404"
       sodipodi:linespacing="125%"><tspan
         sodipodi:role="line"
         id="tspan4406"
         x="20"
         y="67.362183">threshold</tspan></text>
    <path
       style="fill:none;stroke:#000000;stroke-width:1px;stroke-linecap:butt;stroke-linejoin:miter;stroke-opacity:1;marker-start:url(#Arrow2Lstart);marker-end:url(#Arrow2Lend)"
       d="m 245,252.36218 70,0"
       id="path4408"
       inkscape:connector-curvature="0" />
    <text
       xml:space="preserve"
       style="font-size:18px;font-style:normal;font-variant:normal;font-weight:300;font-stretch:normal;text-align:start;line-height:125%;letter-spacing:0px;word-spacing:0px;writing-mode:lr-tb;text-anchor:start;fill:#000000;fill-opacity:1;stroke:none;font-family:'.Aqua かな';-inkscape-font-specification:'.Aqua かな Light'"
       x="255"
       y="272.36218"
       id="text5342"
       sodipodi:linespacing="125%"><tspan
         sodipodi:role="line"
         id="tspan5344"
         x="255"
         y="272.36218">width</tspan></text>
    <path
       style="fill:none;stroke:#000000;stroke-width:1px;stroke-linecap:butt;stroke-linejoin:miter;stroke-opacity:1;marker-start:url(#Arrow2Lstart);marker-end:url(#Arrow2Lend)"
       d="m 430,252.36218 70,0"
       id="path5346"
       inkscape:connector-curvature="0" />
    <text
       xml:space="preserve"
       style="font-size:18px;font-style:normal;font-variant:normal;font-weight:300;font-stretch:normal;text-align:start;line-height:125%;letter-spacing:0px;word-spacing:0px;writing-mode:lr-tb;text-anchor:start;fill:#000000;fill-opacity:1;stroke:none;font-family:'.Aqua かな';-inkscape-font-specification:'.Aqua かな Light'"
       x="440"
       y="272.36218"
       id="text5724"
       sodipodi:linespacing="125%"><tspan
         sodipodi:role="line"
         id="tspan5726"
         x="440"
         y="272.36218">width</tspan></text>
    <path
       style="fill:none;stroke:#000000;stroke-width:1;stroke-linecap:butt;stroke-linejoin:miter;stroke-opacity:1;stroke-miterlimit:4;stroke-dasharray:6,6;stroke-dashoffset:0"
       d="m 100,242.36218 495,0"
       id="path5728"
       inkscape:connector-curvature="0" />
    <path
       inkscape:connector-curvature="0"
       id="path5730"
       d="m 430,187.36218 70,0"
       style="fill:none;stroke:#000000;stroke-width:1;stroke-linecap:butt;stroke-linejoin:miter;stroke-miterlimit:4;stroke-opacity:1;stroke-dasharray:none;stroke-dashoffset:0"
       sodipodi:nodetypes="cc" />
    <text
       xml:space="preserve"
       style="font-size:22px;font-style:normal;font-variant:normal;font-weight:normal;font-stretch:normal;text-align:start;line-height:125%;letter-spacing:0px;word-spacing:0px;writing-mode:lr;text-anchor:start;fill:#000000;fill-opacity:1;stroke:none;font-family:Arial;-inkscape-font-specification:Arial"
       x="100"
       y="182.36218"
       id="text5732"
       sodipodi:linespacing="125%"><tspan
         sodipodi:role="line"
         id="tspan5734"
         x="100"
         y="182.36218">OUTPUT</tspan></text>
    <text
       xml:space="preserve"
       style="font-size:40px;font-style:normal;font-variant:normal;font-weight:300;font-stretch:normal;line-height:125%;letter-spacing:0px;word-spacing:0px;fill:#000000;fill-opacity:1;stroke:none;font-family:'.Aqua かな';-inkscape-font-specification:'.Aqua かな Light'"
       x="72.265968"
       y="38.188961"
       id="text5736"
       sodipodi:linespacing="125%"><tspan
         sodipodi:role="line"
         id="tspan5738"
         x="72.265968"
         y="38.188961" /></text>
    <path
       style="fill:none;stroke:#ff0012;stroke-width:2;stroke-linecap:butt;stroke-linejoin:miter;stroke-opacity:1;stroke-miterlimit:4;stroke-dasharray:none"
       d="m 100,187.36218 145,0 0,55 70,0 0,-55 115,0 0,55 70,0 0,-55 95,0"
       id="path2989"
       inkscape:connector-curvature="0"
       sodipodi:nodetypes="cccccccccc" />
    <path
       style="fill:none;stroke:#ff0012;stroke-width:2;stroke-linecap:butt;stroke-linejoin:miter;stroke-opacity:1;stroke-miterlimit:4;stroke-dasharray:none"
       d="m 215,37.362183 c 24.44395,13.062117 25.89443,16.065713 30,30 3.10085,10.524243 2.27652,10.068343 5,30 2.52468,18.476747 0.81105,18.174397 3.04098,32.244997 2.40055,15.14712 4.67581,13.11562 6.39993,7.21801 3.94187,-13.48373 6.29026,-23.63428 7.81291,-28.20225 2.04755,-6.14265 6.71149,-17.877846 9.33495,-23.897272 5.65532,-12.975908 8.19518,-16.117118 17.18638,-25.11939 8.45996,-8.470381 9.69379,-5.918636 16.22485,-10.612424 10.02828,-4.39668 9.52512,-4.161993 19.45832,-6.945696 C 352.82611,39.025239 362.02686,38.076216 365,37.362183"
       id="path4342"
       inkscape:connector-curvature="0"
       sodipodi:nodetypes="csssssssccc" />
    <path
       sodipodi:nodetypes="csssssssccc"
       inkscape:connector-curvature="0"
       id="path4377"
       d="m 105.40555,37.391537 c 17.94736,3.543284 19.01234,4.358052 22.02676,8.137925 2.27672,2.85485 1.67147,2.731181 3.67112,8.137924 1.85368,5.01208 0.59549,4.930064 2.23277,8.746913 1.76254,4.108871 3.43309,3.557798 4.69898,1.957988 2.89422,-3.657653 4.61847,-6.411134 5.73644,-7.65026 1.50336,-1.666281 4.92774,-4.849619 6.85395,-6.482474 4.15228,-3.519899 6.01711,-4.371996 12.61868,-6.81399 6.21151,-2.297711 7.11742,-1.605514 11.91269,-2.878771 7.36301,-1.192661 6.07494,2.851753 13.98058,7.608445 8.8895,-13.068479 24.21885,-10.570009 26.4018,-10.7637"
       style="fill:none;stroke:#ff0012;stroke-width:2;stroke-linecap:butt;stroke-linejoin:miter;stroke-miterlimit:4;stroke-opacity:1;stroke-dasharray:none" />
    <path
       sodipodi:nodetypes="csssssssccc"
       inkscape:connector-curvature="0"
       id="path4379"
       d="m 400,37.362183 c 24.44395,13.062117 26.71988,17.491696 30.82545,31.425983 3.10085,10.524243 2.27652,10.068343 5,30 2.52468,18.476754 7.85392,-28.063571 10.08385,-13.992971 2.40055,15.14712 6.51308,35.775295 8.2372,29.877685 3.94187,-13.48374 2.92193,-14.44794 4.44458,-19.015906 2.04755,-6.14265 1.19968,-3.485897 3.82314,-9.505323 5.65532,-12.975908 10.64487,-32.040128 19.63607,-41.0424 8.45996,-8.470381 10.91864,4.186351 17.4497,-0.507437 10.02828,-4.39668 25.14192,-0.487452 35.07512,-3.271155 C 557.9429,38.30774 550.90263,49.099838 560,37.362183"
       style="fill:none;stroke:#ff0012;stroke-width:2;stroke-linecap:butt;stroke-linejoin:miter;stroke-opacity:1;stroke-miterlimit:4;stroke-dasharray:none" />
  </g>
</svg>
